<?xml version="1.0" encoding="UTF-8" standalone="no"?>
<svg
   xmlns:dc="http://purl.org/dc/elements/1.1/"
   xmlns:cc="http://creativecommons.org/ns#"
   xmlns:rdf="http://www.w3.org/1999/02/22-rdf-syntax-ns#"
   xmlns:svg="http://www.w3.org/2000/svg"
   xmlns="http://www.w3.org/2000/svg"
   xmlns:sodipodi="http://sodipodi.sourceforge.net/DTD/sodipodi-0.dtd"
   xmlns:inkscape="http://www.inkscape.org/namespaces/inkscape"
   width="264.58334mm"
   height="100.14234mm"
   viewBox="0 0 264.58334 100.14234"
   version="1.1"
   id="svg8"
   inkscape:version="1.0.1 (3bc2e813f5, 2020-09-07)"
   sodipodi:docname="BRI 2020.svg">
  <defs
     id="defs2" />
  <sodipodi:namedview
     id="base"
     pagecolor="#ffffff"
     bordercolor="#666666"
     borderopacity="1.0"
     inkscape:pageopacity="0.0"
     inkscape:pageshadow="2"
     inkscape:zoom="1"
     inkscape:cx="868.12734"
     inkscape:cy="96.00926"
     inkscape:document-units="mm"
     inkscape:current-layer="layer1"
     inkscape:document-rotation="0"
     showgrid="false"
     fit-margin-top="0"
     fit-margin-left="0"
     fit-margin-right="0"
     fit-margin-bottom="0"
     inkscape:window-width="1920"
     inkscape:window-height="1001"
     inkscape:window-x="-9"
     inkscape:window-y="-9"
     inkscape:window-maximized="1" />
  <metadata
     id="metadata5">
    <rdf:RDF>
      <cc:Work
         rdf:about="">
        <dc:format>image/svg+xml</dc:format>
        <dc:type
           rdf:resource="http://purl.org/dc/dcmitype/StillImage" />
        <dc:title></dc:title>
      </cc:Work>
    </rdf:RDF>
  </metadata>
  <g
     inkscape:label="Layer 1"
     inkscape:groupmode="layer"
     id="layer1"
     transform="translate(-371.14847,59.527701)">
    <g
       id="g38"
       transform="matrix(5.6393519,0,0,5.6393519,-1721.8884,276.16993)">
      <g
         id="g136"
         transform="matrix(0.35277777,0,0,-0.35277777,386.18316,-59.527697)">
        <path
           d="m 0,0 h -34.943 c -4.237,0 -7.675,-3.521 -7.675,-7.87 v -34.596 c 0,-4.309 3.37,-7.808 7.56,-7.87 l 35.033,-0.001 c 4.237,0 7.683,3.522 7.683,7.871 L 7.675,-7.87 C 7.675,-3.521 4.236,0 0,0 m -30.79,-46.304 -1.907,-0.023 c -2.309,0 -4.173,1.901 -4.173,4.237 l -0.014,0.337 v 31.948 l 0.014,1.722 c 0.093,2.26 1.808,4.086 4.058,4.086 h 3.873 c 3.517,0 6.361,-3.055 6.361,-6.653 0,-1.787 -0.7,-3.4 -1.832,-4.579 l -9.883,-10.024 9.267,-9.44 c 1.19,-1.234 1.91,-2.853 1.91,-4.622 0,-3.859 -3.429,-6.989 -7.674,-6.989 m 28.49,0.029 -17.279,0.005 c 0,0 1.998,4.322 1.998,6.993 0,3.257 -1.089,6.172 -2.794,8.096 l -5.907,6.026 6.024,6.226 c 1.803,1.694 2.993,4.691 2.993,8.1 0,2.701 -0.746,5.094 -1.954,6.832 h 4.189 c 3.514,0 6.361,-3.055 6.361,-6.653 0,-1.787 -0.697,-3.4 -1.826,-4.579 l -9.7,-9.922 20.14,-20.539 c -0.642,-0.402 -1.444,-0.585 -2.245,-0.585 m 4.215,6.415 -14.435,14.712 6.874,6.984 c 1.401,1.755 2.293,4.39 2.293,7.335 0,2.717 -0.76,5.173 -1.973,6.91 l 3.073,-0.096 c 2.305,0 4.18,-1.895 4.18,-4.238 z"
           style="fill:#00529c;fill-opacity:1;fill-rule:nonzero;stroke:none"
           id="path138" />
      </g>
      <g
         id="g140"
         transform="matrix(0.35277777,0,0,-0.35277777,399.81696,-51.4826)">
        <path
           d="M 0,0 C 0.281,0.281 0.613,0.643 0.996,1.086 1.378,1.529 1.74,2.052 2.082,2.656 2.424,3.26 2.716,3.933 2.957,4.678 3.199,5.422 3.32,6.217 3.32,7.062 c 0,1.649 -0.282,3.188 -0.845,4.617 -0.564,1.428 -1.429,2.676 -2.596,3.743 -1.167,1.065 -2.625,1.901 -4.376,2.505 -1.75,0.603 -3.793,0.905 -6.126,0.905 h -0.064 -6.708 -1.746 -6.874 v -7.694 -26.636 -7.921 h 16.901 c 2.454,0 4.596,0.332 6.428,0.996 1.83,0.664 3.35,1.579 4.557,2.746 1.207,1.167 2.102,2.525 2.686,4.074 0.583,1.549 0.875,3.209 0.875,4.98 0,2.374 -0.543,4.486 -1.629,6.338 C 2.716,-2.435 1.448,-1.006 0,0 m -7.473,11.09 c 0.569,-0.217 1.044,-0.499 1.415,-0.854 0.961,-0.922 1.442,-2.024 1.442,-3.306 0,-1.163 -0.201,-2.124 -0.601,-2.885 C -5.618,3.283 -6.019,2.702 -6.419,2.302 h -11.749 v 9.287 h 7.303 c 1.369,0 2.496,-0.169 3.392,-0.499 m -1.219,-16.1 c 2.127,0 3.703,-0.551 4.729,-1.651 0.965,-1.083 1.451,-2.361 1.451,-3.84 0,-1.524 -0.551,-2.825 -1.653,-3.907 -1.103,-1.082 -2.915,-1.624 -5.44,-1.624 h -0.943 -7.62 V -5.01 Z"
           style="fill:#00529c;fill-opacity:1;fill-rule:nonzero;stroke:none"
           id="path142" />
      </g>
      <g
         id="g144"
         transform="matrix(0.35277777,0,0,-0.35277777,411.84175,-49.640747)">
        <path
           d="m 0,0 c 1.267,0.865 2.324,1.871 3.169,3.018 0.845,1.147 1.468,2.414 1.871,3.802 0.402,1.389 0.604,2.807 0.604,4.256 0,1.891 -0.313,3.631 -0.936,5.221 -0.625,1.589 -1.56,2.957 -2.807,4.104 -1.248,1.147 -2.807,2.042 -4.678,2.686 -1.871,0.643 -4.034,0.966 -6.488,0.966 h -0.221 -16.257 -0.152 v -42.251 h 7.999 v 15.693 h 4.46 L -2.405,-18.198 H 6.971 L -4.436,-1.962 C -2.747,-1.52 -1.268,-0.866 0,0 m -9.205,16.81 c 0.503,0 0.978,-0.033 1.43,-0.09 1.426,-0.215 2.591,-0.724 3.489,-1.533 1.222,-1.103 1.833,-2.455 1.833,-4.057 0,-0.803 -0.131,-1.584 -0.391,-2.345 C -3.105,8.023 -3.515,7.352 -4.076,6.772 -4.638,6.19 -5.359,5.72 -6.24,5.359 -7.122,4.998 -8.184,4.818 -9.426,4.818 h -8.47 V 16.81 Z"
           style="fill:#00529c;fill-opacity:1;fill-rule:nonzero;stroke:none"
           id="path146" />
      </g>
      <g
         id="g148"
         transform="matrix(0.35277777,0,0,-0.35277777,415.29756,-58.126111)">
        <path
           d="M 0,0 V -0.012 C -0.081,-0.01 -0.16,0 -0.241,0 H -0.309 V -0.003 -15.49 -26.587 -42.251 H 7.847 V 0 Z"
           style="fill:#00529c;fill-opacity:1;fill-rule:nonzero;stroke:none"
           id="path150" />
      </g>
    </g>
  </g>
</svg>
