<svg width="24" height="24" viewBox="0 0 24 24" fill="none" xmlns="http://www.w3.org/2000/svg">
<path d="M17.9503 17.7957C17.7497 18.0368 17.4778 18.2471 17.1392 18.4216C16.5792 18.7103 15.848 18.8956 14.9873 18.9669C14.1266 19.0382 13.1532 18.9941 12.1227 18.8371C11.0923 18.6802 10.0249 18.4134 8.98158 18.0521C7.93827 17.6908 6.93943 17.242 6.0421 16.7313C5.14476 16.2206 4.3665 15.6581 3.75176 15.0758C3.13702 14.4936 2.69783 13.9029 2.45927 13.3377C2.31616 12.9986 2.24693 12.6727 2.25199 12.3664L1 11.3026L1.41307 10.8006L2.70961 11.9022L17.8879 17.1587L19.6557 17.1045L19.6391 17.7439L17.9503 17.7957Z" fill="#E71F1F"/>
<path d="M6.32679 12.4091C5.34504 13.9792 6.44694 16.0267 6.44694 16.0267C6.44694 16.0267 5.80442 15.3595 7.03062 13.6779C7.91402 12.4664 6.24323 9.89342 6.24323 9.89342C6.24323 9.89342 7.07211 11.2171 6.32679 12.4091Z" fill="#E71F1F"/>
<path d="M5.0092 9.0226C6.04252 10.5619 5.00908 12.642 5.00908 12.642C5.00908 12.642 5.62914 11.9556 4.34779 10.3123C3.42466 9.12839 5.00928 6.50566 5.00928 6.50566C5.00928 6.50566 4.22472 7.85402 5.0092 9.0226Z" fill="#E71F1F"/>
<path d="M9.6048 12.2791C10.5095 11.6062 10.3138 10.2426 10.3138 10.2426C10.3138 10.2426 10.5412 10.7447 9.47139 11.4298C8.70064 11.9233 9.11178 13.6953 9.11178 13.6953C9.11178 13.6953 8.91798 12.79 9.6048 12.2791Z" fill="#E71F1F"/>
<path d="M7.80864 7.57626C9.28159 9.81238 7.80878 12.9846 7.80878 12.9846C7.80878 12.9846 8.71964 11.5805 6.84197 8.66832C5.80256 7.05623 7.80853 3 7.80853 3C7.80853 3 6.58727 5.72205 7.80864 7.57626Z" fill="#E71F1F"/>
<path d="M15.8933 12.1156C16.0403 12.1011 16.1852 12.1566 16.2813 12.2643L16.8158 12.8637C16.9181 12.9784 16.9505 13.136 16.9012 13.2793L16.6013 14.1515C16.5756 14.2264 16.5289 14.293 16.4665 14.3442L15.8574 14.8441C15.6686 14.999 15.3847 14.9778 15.2232 14.7967L13.9916 13.4156C13.8301 13.2346 13.8522 12.9622 14.041 12.8073L14.6389 12.3167C14.7083 12.2597 14.7942 12.2243 14.8851 12.2153L15.8933 12.1156Z" fill="#E71F1F"/>
<path d="M22.4989 7.20475L23 7.76662L16.679 12.7103L16.3784 12.3731L22.4989 7.20475Z" fill="#E71F1F"/>
</svg>
