<svg width="921" height="200" viewBox="0 0 921 200" fill="none" xmlns="http://www.w3.org/2000/svg">
<path d="M281.633 152.438C277.57 152.438 272.982 152.087 267.869 151.386C265.067 151.035 263.141 150.298 262.09 149.176C261.04 148.054 260.584 146.23 260.724 143.704C261.215 136.759 262.37 128.201 264.192 118.029C266.013 107.787 268.219 97.9313 270.811 88.461C271.301 86.7072 272.282 85.4796 273.753 84.7781C275.224 84.0766 277.15 83.7258 279.531 83.7258C283.804 83.7258 285.94 84.9184 285.94 87.3035C285.94 88.2856 285.73 89.408 285.31 90.6707C283.489 96.2827 281.668 103.824 279.847 113.294C278.025 122.694 276.73 131.674 275.959 140.232C278.06 140.442 280.442 140.548 283.104 140.548C295.362 140.548 304.502 136.83 310.526 129.394C316.62 121.958 319.667 112.031 319.667 99.6149C319.667 91.267 317.286 84.8132 312.523 80.2534C307.759 75.6936 301.035 73.4137 292.35 73.4137C286.746 73.4137 281.177 74.2906 275.644 76.0444C270.18 77.7981 265.242 80.1131 260.829 82.9893C259.919 83.6206 258.938 83.9363 257.887 83.9363C256.697 83.9363 255.751 83.4452 255.051 82.4631C254.35 81.4109 254 80.1482 254 78.675C254 76.9914 254.28 75.6235 254.841 74.5712C255.401 73.4488 256.347 72.4316 257.677 71.5197C262.51 68.2226 268.184 65.7323 274.698 64.0487C281.212 62.2949 287.481 61.418 293.505 61.418C302.051 61.418 309.441 62.9263 315.675 65.9427C321.909 68.889 326.707 73.2384 330.069 78.9907C333.431 84.743 335.112 91.6879 335.112 99.8253C335.112 110.418 333.011 119.678 328.808 127.605C324.605 135.462 318.476 141.565 310.421 145.914C302.366 150.263 292.77 152.438 281.633 152.438Z" fill="#E71F1F"/>
<path d="M353.016 152.438C348.673 152.438 345.206 150.86 342.615 147.703C340.023 144.546 338.727 140.407 338.727 135.286C338.727 129.674 340.023 124.378 342.615 119.397C345.206 114.346 348.638 110.313 352.911 107.296C357.254 104.21 361.842 102.666 366.675 102.666C368.216 102.666 369.232 102.982 369.722 103.613C370.282 104.175 370.738 105.227 371.088 106.77C372.559 106.49 374.1 106.349 375.711 106.349C379.143 106.349 380.859 107.577 380.859 110.032C380.859 111.505 380.334 115.013 379.283 120.555C377.672 128.622 376.866 134.234 376.866 137.391C376.866 138.443 377.112 139.285 377.602 139.916C378.162 140.548 378.863 140.863 379.703 140.863C381.034 140.863 382.645 140.021 384.536 138.338C386.428 136.584 388.984 133.778 392.206 129.92C393.047 128.938 393.992 128.447 395.043 128.447C395.954 128.447 396.654 128.868 397.145 129.709C397.705 130.551 397.985 131.709 397.985 133.182C397.985 135.988 397.32 138.162 395.989 139.706C393.117 143.283 390.07 146.3 386.848 148.755C383.626 151.21 380.509 152.438 377.497 152.438C375.185 152.438 373.049 151.666 371.088 150.123C369.197 148.51 367.761 146.335 366.78 143.599C363.138 149.492 358.55 152.438 353.016 152.438ZM356.799 141.81C358.34 141.81 359.811 140.898 361.211 139.074C362.612 137.251 363.628 134.83 364.258 131.814L368.146 112.452C365.204 112.523 362.472 113.645 359.951 115.82C357.499 117.924 355.538 120.73 354.067 124.238C352.596 127.745 351.86 131.463 351.86 135.392C351.86 137.566 352.281 139.18 353.121 140.232C354.032 141.284 355.258 141.81 356.799 141.81Z" fill="#E71F1F"/>
<path d="M445.552 128.447C446.462 128.447 447.163 128.868 447.653 129.709C448.214 130.551 448.494 131.709 448.494 133.182C448.494 135.988 447.828 138.162 446.497 139.706C443.486 143.424 440.228 146.475 436.726 148.86C433.294 151.246 429.371 152.438 424.959 152.438C421.246 152.438 418.234 151.105 415.923 148.44C411.93 151.035 407.763 152.368 403.42 152.438C402.509 165.977 400.443 177.271 397.221 186.321C393.999 195.44 389.271 200 383.037 200C379.254 200 376.453 198.632 374.631 195.896C372.81 193.16 371.9 189.372 371.9 184.532C371.9 177.657 373.476 169.625 376.628 160.435C379.78 151.316 384.648 141.249 391.232 130.236C391.232 119.994 391.162 112.873 391.022 108.875C390.952 106.84 391.757 105.227 393.438 104.034C395.119 102.842 397.221 102.246 399.742 102.246C401.213 102.246 402.264 102.561 402.894 103.193C403.595 103.754 403.98 104.911 404.05 106.665C404.05 108.419 404.085 109.717 404.155 110.558C406.397 107.752 408.603 105.753 410.775 104.56C412.946 103.298 415.257 102.666 417.709 102.666C421.632 102.666 424.819 104.245 427.27 107.402C429.792 110.558 431.053 114.697 431.053 119.818C431.053 123.536 430.457 127.149 429.266 130.656C428.076 134.164 426.43 137.356 424.328 140.232C425.799 140.653 427.025 140.863 428.006 140.863C430.317 140.863 432.523 140.021 434.625 138.338C436.726 136.654 439.423 133.848 442.715 129.92C443.556 128.938 444.501 128.447 445.552 128.447ZM403.945 142.336C406.467 141.775 408.778 140.407 410.88 138.233C413.051 135.988 414.767 133.252 416.028 130.025C417.289 126.728 417.919 123.291 417.919 119.713C417.919 117.608 417.499 116.03 416.658 114.978C415.818 113.855 414.697 113.294 413.296 113.294C410.775 113.294 407.728 115.96 404.155 121.291C404.085 124.378 404.05 128.903 404.05 134.865C404.05 138.092 404.015 140.583 403.945 142.336ZM383.877 189.688C385.768 189.688 387.345 185.549 388.605 177.271C389.866 169.064 390.672 158.822 391.022 146.545C388.01 153.56 385.628 160.26 383.877 166.644C382.126 173.027 381.251 178.394 381.251 182.743C381.251 184.988 381.531 186.707 382.091 187.899C382.581 189.092 383.177 189.688 383.877 189.688Z" fill="#E71F1F"/>
<path d="M493.614 119.608C494.525 119.608 495.225 120.064 495.716 120.976C496.206 121.888 496.451 123.045 496.451 124.448C496.451 127.815 495.436 129.815 493.404 130.446C489.202 131.919 484.579 132.761 479.535 132.971C478.205 138.864 475.578 143.599 471.655 147.177C467.733 150.684 463.285 152.438 458.312 152.438C454.109 152.438 450.502 151.421 447.49 149.387C444.548 147.352 442.307 144.651 440.766 141.284C439.225 137.917 438.454 134.269 438.454 130.341C438.454 125.009 439.47 120.274 441.501 116.135C443.532 111.926 446.334 108.664 449.906 106.349C453.479 103.964 457.436 102.772 461.779 102.772C467.102 102.772 471.375 104.631 474.597 108.349C477.889 111.996 479.816 116.521 480.376 121.923C483.668 121.712 487.591 121.011 492.144 119.818C492.704 119.678 493.194 119.608 493.614 119.608ZM459.152 141.284C461.394 141.284 463.32 140.372 464.931 138.548C466.612 136.724 467.733 134.094 468.293 130.656C466.122 129.183 464.441 127.254 463.25 124.869C462.129 122.484 461.569 119.958 461.569 117.293C461.569 116.17 461.674 115.048 461.884 113.926H461.359C458.557 113.926 456.21 115.293 454.319 118.029C452.498 120.695 451.587 124.483 451.587 129.394C451.587 133.252 452.323 136.198 453.794 138.233C455.335 140.267 457.121 141.284 459.152 141.284Z" fill="#E71F1F"/>
<path d="M534.294 128.447C535.204 128.447 535.905 128.868 536.395 129.709C536.955 130.551 537.235 131.709 537.235 133.182C537.235 135.988 536.57 138.162 535.239 139.706C532.648 142.863 528.97 145.774 524.207 148.44C519.514 151.105 514.471 152.438 509.077 152.438C501.723 152.438 496.014 150.439 491.951 146.44C487.889 142.442 485.858 136.97 485.858 130.025C485.858 125.185 486.873 120.695 488.904 116.556C490.936 112.347 493.738 109.015 497.31 106.56C500.952 104.105 505.05 102.877 509.603 102.877C513.665 102.877 516.922 104.105 519.374 106.56C521.826 108.945 523.051 112.207 523.051 116.346C523.051 121.186 521.3 125.36 517.798 128.868C514.366 132.305 508.517 135.041 500.252 137.075C502.003 140.302 505.33 141.916 510.233 141.916C513.385 141.916 516.957 140.828 520.95 138.654C525.013 136.409 528.515 133.497 531.457 129.92C532.297 128.938 533.243 128.447 534.294 128.447ZM507.817 113.189C505.225 113.189 503.019 114.697 501.197 117.714C499.446 120.73 498.571 124.378 498.571 128.657V128.868C502.703 127.885 505.96 126.412 508.342 124.448C510.723 122.484 511.914 120.204 511.914 117.608C511.914 116.276 511.529 115.223 510.758 114.452C510.058 113.61 509.077 113.189 507.817 113.189Z" fill="#E71F1F"/>
<path d="M571.128 117.293C572.669 117.293 573.965 117.854 575.015 118.976C576.136 120.029 576.697 121.361 576.697 122.975C576.697 123.887 576.486 124.869 576.066 125.921C574.945 128.517 573.369 130.691 571.338 132.445C569.307 134.199 567.065 135.076 564.614 135.076C562.653 135.076 560.971 134.374 559.571 132.971C558.24 131.568 557.574 129.674 557.574 127.289C557.574 125.956 557.644 124.518 557.784 122.975C557.924 121.853 557.995 121.081 557.995 120.66C557.995 120.099 557.854 119.678 557.574 119.397C557.364 119.117 557.084 118.976 556.734 118.976C555.753 118.976 554.422 120.169 552.741 122.554C551.06 124.869 549.379 127.956 547.698 131.814C546.017 135.672 544.651 139.741 543.6 144.02C542.83 147.387 541.954 149.632 540.974 150.754C539.993 151.877 538.382 152.438 536.14 152.438C533.479 152.438 531.588 151.035 530.467 148.229C529.416 145.423 528.891 140.933 528.891 134.76C528.891 125.641 530.187 116.977 532.778 108.77C533.409 106.735 534.424 105.262 535.825 104.35C537.296 103.368 539.328 102.877 541.919 102.877C543.32 102.877 544.301 103.052 544.861 103.403C545.421 103.754 545.702 104.42 545.702 105.402C545.702 106.525 545.176 109.05 544.126 112.979C543.425 115.785 542.865 118.24 542.445 120.344C542.024 122.449 541.674 125.044 541.394 128.131C543.705 122.098 546.297 117.188 549.169 113.399C552.041 109.611 554.842 106.911 557.574 105.297C560.306 103.684 562.793 102.877 565.034 102.877C567.065 102.877 568.606 103.473 569.657 104.666C570.778 105.788 571.338 107.472 571.338 109.717C571.338 111.049 570.953 113.575 570.182 117.293H571.128Z" fill="#E71F1F"/>
<path d="M694.663 84.5676C694.663 90.5304 692.561 95.6865 688.359 100.036C684.156 104.315 678.027 107.402 669.972 109.296C674.315 110.488 677.607 112.452 679.848 115.188C682.09 117.854 683.21 120.941 683.21 124.448C683.21 129.99 681.459 134.795 677.957 138.864C674.525 142.933 669.481 146.089 662.827 148.334C656.173 150.509 648.153 151.596 638.767 151.596C635.264 151.596 632.463 151.491 630.361 151.281C630.291 153.245 629.451 154.718 627.84 155.7C626.229 156.682 624.162 157.173 621.641 157.173C619.119 157.173 617.368 156.612 616.387 155.49C615.477 154.367 615.092 152.719 615.232 150.544C615.862 140.723 617.088 130.446 618.909 119.713C620.73 108.91 623.042 98.4925 625.843 88.461C626.334 86.7072 627.314 85.4796 628.785 84.7781C630.256 84.0766 632.182 83.7258 634.564 83.7258C638.837 83.7258 640.973 84.9184 640.973 87.3035C640.973 88.2856 640.763 89.408 640.343 90.6707C638.522 96.1425 636.7 103.578 634.879 112.979C633.058 122.309 631.762 131.218 630.992 139.706C634.354 139.986 637.086 140.127 639.187 140.127C648.993 140.127 656.173 138.724 660.726 135.918C665.349 133.042 667.66 129.394 667.66 124.974C667.66 121.888 666.329 119.292 663.668 117.188C661.076 115.083 656.698 113.926 650.534 113.715C649.133 113.645 648.153 113.294 647.592 112.663C647.032 112.031 646.752 111.014 646.752 109.611C646.752 107.577 647.172 105.928 648.013 104.666C648.853 103.403 650.394 102.737 652.636 102.666C657.609 102.526 662.092 101.79 666.084 100.457C670.147 99.1238 673.334 97.2649 675.645 94.8797C677.957 92.4245 679.113 89.5834 679.113 86.3565C679.113 82.2878 677.116 79.0959 673.124 76.781C669.131 74.3959 663.002 73.2033 654.737 73.2033C647.242 73.2033 639.993 74.1854 632.988 76.1496C625.984 78.0437 620.03 80.4639 615.127 83.4102C612.885 84.743 610.994 85.4095 609.453 85.4095C608.192 85.4095 607.211 84.9885 606.511 84.1467C605.881 83.2348 605.565 82.1124 605.565 80.7795C605.565 79.0258 605.916 77.5175 606.616 76.2548C607.387 74.9921 609.173 73.554 611.975 71.9406C617.858 68.5734 624.758 65.9427 632.673 64.0487C640.588 62.1546 648.678 61.2076 656.943 61.2076C669.622 61.2076 679.078 63.3472 685.312 67.6263C691.546 71.9055 694.663 77.5526 694.663 84.5676Z" fill="#E71F1F"/>
<path d="M704.078 152.438C700.926 152.438 698.335 151 696.303 148.124C694.342 145.178 693.362 141.53 693.362 137.18C693.362 131.919 693.712 127.114 694.412 122.764C695.113 118.345 696.268 113.68 697.879 108.77C698.58 106.665 699.561 105.157 700.821 104.245C702.082 103.333 704.078 102.877 706.81 102.877C708.351 102.877 709.402 103.122 709.962 103.613C710.593 104.105 710.908 104.841 710.908 105.823C710.908 106.384 710.523 108.278 709.752 111.505C709.052 114.101 708.491 116.451 708.071 118.555C706.67 125.921 705.97 130.832 705.97 133.287C705.97 134.76 706.145 135.812 706.495 136.444C706.845 137.005 707.406 137.286 708.176 137.286C709.227 137.286 710.523 136.233 712.064 134.129C713.675 132.024 715.356 128.832 717.107 124.553C718.928 120.274 720.679 115.013 722.36 108.77C722.921 106.665 723.761 105.157 724.882 104.245C726.073 103.333 727.824 102.877 730.135 102.877C731.746 102.877 732.867 103.087 733.497 103.508C734.128 103.859 734.443 104.56 734.443 105.613C734.443 107.367 733.567 112.172 731.816 120.029C729.855 129.008 728.874 134.55 728.874 136.654C728.874 137.987 729.155 139.039 729.715 139.811C730.275 140.513 731.011 140.863 731.921 140.863C733.322 140.863 734.968 140.021 736.859 138.338C738.821 136.584 741.412 133.778 744.634 129.92C745.475 128.938 746.421 128.447 747.471 128.447C748.382 128.447 749.082 128.868 749.573 129.709C750.133 130.551 750.413 131.709 750.413 133.182C750.413 135.988 749.748 138.162 748.417 139.706C745.405 143.424 742.148 146.475 738.646 148.86C735.213 151.246 731.291 152.438 726.878 152.438C723.516 152.438 721.029 151.14 719.418 148.545C717.877 145.949 717.107 142.301 717.107 137.601C715.916 142.372 714.13 146.054 711.748 148.65C709.367 151.175 706.81 152.438 704.078 152.438Z" fill="#E71F1F"/>
<path d="M786.547 140.969C789.419 141.53 790.855 143.108 790.855 145.704C790.855 147.457 790.05 149.036 788.439 150.439C786.898 151.772 784.656 152.438 781.714 152.438C776.671 152.438 772.538 150.895 769.316 147.808C766.164 144.651 764.588 140.548 764.588 135.497C764.588 132.761 765.989 130.797 768.791 129.604C771.873 128.271 774.079 126.868 775.41 125.395C776.741 123.852 777.406 121.993 777.406 119.818C777.406 118.555 777.126 117.608 776.566 116.977C776.076 116.346 775.445 116.03 774.675 116.03C772.784 116.03 770.682 117.398 768.371 120.134C766.129 122.87 764.028 126.412 762.067 130.762C760.105 135.041 758.564 139.46 757.444 144.02C756.673 147.317 755.763 149.562 754.712 150.754C753.731 151.877 752.155 152.438 749.984 152.438C747.812 152.438 746.201 151.666 745.151 150.123C744.17 148.51 743.505 146.054 743.155 142.757C742.804 139.46 742.629 134.62 742.629 128.236C742.629 117.433 743.715 106.174 745.886 94.4588C748.128 82.7437 751.385 72.9227 755.658 64.9957C760 56.9986 765.184 53 771.207 53C774.43 53 777.021 54.403 778.982 57.209C781.014 59.9449 782.029 63.5225 782.029 67.942C782.029 75.0272 779.963 82.393 775.83 90.0394C771.698 97.6156 764.973 106.49 755.658 116.661C755.447 120.309 755.342 124.062 755.342 127.921C758.704 119.152 762.557 112.803 766.9 108.875C771.243 104.876 775.305 102.877 779.088 102.877C782.59 102.877 785.392 104.069 787.493 106.455C789.664 108.84 790.75 111.786 790.75 115.293C790.75 119.152 789.769 122.694 787.808 125.921C785.847 129.148 782.485 132.024 777.722 134.55C778.142 136.654 778.982 138.127 780.243 138.969C781.574 139.741 783.675 140.407 786.547 140.969ZM769.001 63.4173C767.74 63.4173 766.339 65.2412 764.798 68.889C763.257 72.4667 761.751 77.3422 760.28 83.5154C758.88 89.6185 757.724 96.2828 756.813 103.508C761.156 98.3873 764.728 92.8103 767.53 86.7774C770.402 80.7445 771.838 75.2727 771.838 70.3622C771.838 68.1174 771.593 66.3987 771.102 65.2062C770.612 64.0136 769.912 63.4173 769.001 63.4173Z" fill="#E71F1F"/>
<path d="M867.043 152.438C858.708 152.438 851.458 150.93 845.294 147.913C839.13 144.827 834.402 140.477 831.11 134.865C827.818 129.253 826.172 122.729 826.172 115.293C826.172 104.981 828.098 95.8268 831.95 87.8296C835.873 79.8325 841.161 73.6593 847.816 69.31C854.47 64.8905 861.86 62.6807 869.985 62.6807C877.55 62.6807 883.293 64.645 887.216 68.5734C891.138 72.4316 893.1 77.5526 893.1 83.9363C893.1 88.2155 892.329 91.6528 890.788 94.2484C889.317 96.8439 887.181 98.1417 884.379 98.1417C882.418 98.1417 880.877 97.6858 879.756 96.7738C878.635 95.8618 878.075 94.529 878.075 92.7752C878.075 92.1439 878.215 90.9864 878.495 89.3028C878.916 87.1983 879.126 85.5147 879.126 84.252C879.126 77.8683 875.728 74.6765 868.934 74.6765C864.311 74.6765 859.898 76.1847 855.696 79.2011C851.493 82.2176 848.096 86.6722 845.504 92.5648C842.912 98.3873 841.617 105.332 841.617 113.399C841.617 121.817 843.963 128.341 848.656 132.971C853.349 137.531 860.284 139.811 869.459 139.811C874.012 139.811 878.6 139.25 883.223 138.127C887.916 136.935 893.1 135.146 898.773 132.761C899.824 132.34 900.7 132.13 901.4 132.13C902.521 132.13 903.361 132.55 903.922 133.392C904.482 134.234 904.762 135.321 904.762 136.654C904.762 140.933 902.451 144.09 897.828 146.125C892.855 148.299 887.671 149.913 882.278 150.965C876.954 151.947 871.876 152.438 867.043 152.438Z" fill="#E71F1F"/>
<path d="M911.019 95.932C908.077 95.932 905.87 95.2656 904.399 93.9327C902.928 92.5297 902.193 90.6006 902.193 88.1453C902.193 85.6901 903.139 83.6557 905.03 82.0422C906.991 80.3586 909.408 79.5168 912.279 79.5168C914.871 79.5168 916.972 80.1482 918.583 81.4109C920.194 82.6736 921 84.4624 921 86.7774C921 89.5834 920.089 91.8282 918.268 93.5118C916.447 95.1253 914.03 95.932 911.019 95.932ZM900.932 152.438C898.691 152.438 897.15 151.982 896.309 151.07C895.469 150.158 895.048 148.72 895.048 146.756C895.048 146.195 895.118 145.213 895.258 143.81C896.379 130.972 898.235 119.292 900.827 108.77C901.387 106.595 902.298 105.087 903.559 104.245C904.89 103.333 906.991 102.877 909.863 102.877C912.875 102.877 914.381 104.105 914.381 106.56C914.381 106.911 914.311 107.577 914.171 108.559C911.019 123.571 909.127 136.163 908.497 146.335C908.357 148.58 907.691 150.158 906.501 151.07C905.31 151.982 903.454 152.438 900.932 152.438Z" fill="#E71F1F"/>
<path d="M174.125 159.053C172.065 161.646 169.271 163.906 165.794 165.782C160.041 168.886 152.53 170.878 143.688 171.644C134.846 172.41 124.846 171.936 114.261 170.249C103.675 168.562 92.7103 165.694 81.9926 161.81C71.2749 157.926 61.0141 153.101 51.7961 147.611C42.578 142.122 34.5832 136.075 28.2681 129.815C21.953 123.556 17.4413 117.207 14.9907 111.13C13.5206 107.485 12.8094 103.982 12.8613 100.689L0 89.2534L4.24331 83.8561L17.5623 95.6982L173.485 152.206L191.645 151.623L191.475 158.497L174.125 159.053Z" fill="#E71F1F"/>
<path d="M54.7206 101.148C44.6354 118.026 55.9549 140.037 55.9549 140.037C55.9549 140.037 49.3545 132.865 61.951 114.788C71.0259 101.764 53.8623 74.1043 53.8623 74.1043C53.8623 74.1043 62.3771 88.3342 54.7206 101.148Z" fill="#E71F1F"/>
<path d="M41.1854 64.743C51.8004 81.2903 41.1841 103.652 41.1841 103.652C41.1841 103.652 47.5539 96.2723 34.391 78.607C24.9079 65.8802 41.1862 37.6859 41.1862 37.6859C41.1862 37.6859 33.1267 52.1807 41.1854 64.743Z" fill="#E71F1F"/>
<path d="M88.3948 99.7505C97.6885 92.5168 95.6779 77.8576 95.6779 77.8576C95.6779 77.8576 98.0145 83.2559 87.0243 90.6203C79.1065 95.9258 83.3301 114.975 83.3301 114.975C83.3301 114.975 81.3392 105.242 88.3948 99.7505Z" fill="#E71F1F"/>
<path d="M69.9434 49.1948C85.0745 73.2331 69.9447 107.334 69.9447 107.334C69.9447 107.334 79.3018 92.2406 60.013 60.9344C49.3354 43.6044 69.9422 0 69.9422 0C69.9422 0 57.3965 29.262 69.9434 49.1948Z" fill="#E71F1F"/>
<path d="M152.995 97.9926C154.504 97.8363 155.994 98.4338 156.98 99.5912L162.472 106.035C163.522 107.267 163.855 108.962 163.348 110.502L160.268 119.879C160.003 120.683 159.525 121.4 158.883 121.951L152.626 127.324C150.687 128.989 147.77 128.761 146.111 126.815L133.459 111.968C131.8 110.022 132.027 107.094 133.966 105.429L140.109 100.154C140.822 99.5415 141.704 99.1615 142.638 99.0649L152.995 97.9926Z" fill="#E71F1F"/>
<path d="M220.853 45.201L226 51.2411L161.066 104.385L157.978 100.761L220.853 45.201Z" fill="#E71F1F"/>
</svg>
